<svg xmlns="http://www.w3.org/2000/svg" viewBox="0 0 314 322.04"><defs><style>.cls-1{fill:none;stroke:#5b267a;stroke-miterlimit:10;stroke-width:3px;}</style></defs><g id="Capa_1" data-name="Capa 1"><line class="cls-1" x1="125.64" y1="15.14" x2="130.85" y2="33.71"/><path class="cls-1" d="M277.11,217.33a1.26,1.26,0,0,1-.18-2.17c3.28-2.34,10.81-7.21,16.46-7.21,5.44,0,11.41,4.51,14.22,6.93a1.52,1.52,0,0,1-.33,2.53c-3,1.44-9,3.88-15,3.88S280.05,218.76,277.11,217.33Z" transform="translate(-98.56 -88.78)"/><path class="cls-1" d="M206.11,216.6a1.43,1.43,0,0,1-.31-2.2,18.26,18.26,0,0,1,13.33-5.83c6.61,0,12.88,4.45,16.11,7.18a1.49,1.49,0,0,1-.63,2.59c-.61.11-1.12.21-1.3.26-.56.15-7.72,2.69-13.76,2.69C215,221.29,208.87,218.15,206.11,216.6Z" transform="translate(-98.56 -88.78)"/><ellipse class="cls-1" cx="193.54" cy="126.14" rx="7.15" ry="6.35"/><ellipse class="cls-1" cx="122.03" cy="126.16" rx="7.15" ry="6.3"/><path class="cls-1" d="M275.12,199.71a2,2,0,0,1-2.55-1.36c-.5-1.78-.19-4.32,4.54-5.84,7.86-2.53,28.5-2.95,33.69-1a34.79,34.79,0,0,1,8.21,4.66.27.27,0,0,1-.25.47c-2.77-.87-8.93-2.57-13.57-2C299.7,195.24,280.93,197.86,275.12,199.71Z" transform="translate(-98.56 -88.78)"/><path class="cls-1" d="M237.76,199.71a2,2,0,0,0,2.55-1.36c.5-1.78.19-4.32-4.54-5.84-7.86-2.53-28.5-2.95-33.69-1a34.48,34.48,0,0,0-8.2,4.66.27.27,0,0,0,.25.47c2.76-.87,8.92-2.57,13.56-2C213.18,195.24,232,197.86,237.76,199.71Z" transform="translate(-98.56 -88.78)"/><path class="cls-1" d="M240.48,265.37c-4.47-3.51-5.07-7.3-2.26-13.33s5.29-12.82,5.29-12.82" transform="translate(-98.56 -88.78)"/><path class="cls-1" d="M250.15,262.57a4.79,4.79,0,0,0-2.52-2.25,3.07,3.07,0,0,0-3.23,1" transform="translate(-98.56 -88.78)"/><path class="cls-1" d="M274.13,265.45c4.48-3.51,5.07-7.3,2.26-13.34S270,233.32,270,233.32" transform="translate(-98.56 -88.78)"/><path class="cls-1" d="M264.46,262.64a4.83,4.83,0,0,1,2.53-2.25,3.08,3.08,0,0,1,3.23,1" transform="translate(-98.56 -88.78)"/><path class="cls-1" d="M173.4,203.94s28.43-8.68,43.79-7,33.45,11.66,41,11.85,14.59-3.88,21.87-6.24,26.25-7.13,37-4.67,25.87,7.2,25.87,7.2l0,2.67a4,4,0,0,1-1.77,3.46c-1.16.72-2.53,2.42-3,6.44-.92,7.42-7,37.45-29.91,38.87s-33.91-7.64-41.4-32.13c0,0-2.27-10.21-8.6-9.9,0,0-4.4-1.75-8,8.76s-10.23,32.06-34.1,32.26S179,236.62,178.88,220.26c0,0-.8-9.46-3.24-9.44S173.4,203.94,173.4,203.94Z" transform="translate(-98.56 -88.78)"/><path class="cls-1" d="M271.48,219.12a13.33,13.33,0,0,1,4.83-11.35c5.35-4.28,15.29-9.35,31.5-7.78,26.91,2.6,25.92,14.1,25.94,15.63s-3.94,36.25-24.55,38.31C290.16,255.84,273.74,250.26,271.48,219.12Z" transform="translate(-98.56 -88.78)"/><path class="cls-1" d="M245.37,217.47a13.56,13.56,0,0,0-5-11.26C235,202,224.93,197.12,208.75,199,181.89,202,183.43,213.55,183.06,215c-1.11,4.48,4,36.33,25.13,37.89C229.07,254.47,244.28,249.31,245.37,217.47Z" transform="translate(-98.56 -88.78)"/><path class="cls-1" d="M228.37,290.06a.71.71,0,0,1,.35-1.15c3.55-1,15.77-4.4,20.54-4.4,5.62,0,5.06,2.34,7.31,2.34s3.36-2.15,7.11-2.34c3.15-.15,15.61,3.28,19.45,4.36a.7.7,0,0,1,.3,1.18c-2.79,2.71-12.35,10.94-25.26,10.94C243.9,301,231.64,293.81,228.37,290.06Z" transform="translate(-98.56 -88.78)"/><path class="cls-1" d="M228.37,290.06s23.33,1.57,28.94,1.57,26.12-1.58,26.12-1.58" transform="translate(-98.56 -88.78)"/><path class="cls-1" d="M333.75,202.31s-13.82-39.84-25.61-59.5-36.66-21.93-45.21-23.58c-8.7-1.69-33.41,3.37-33.41,3.37A26.43,26.43,0,0,0,209,132.7c-8.42,10.67-28.56,43.81-28.56,69.39" transform="translate(-98.56 -88.78)"/><path class="cls-1" d="M323.77,299.68" transform="translate(-98.56 -88.78)"/><path class="cls-1" d="M333.75,234.27" transform="translate(-98.56 -88.78)"/><line class="cls-1" x1="82.38" y1="106.27" x2="77.86" y2="114.28"/><path class="cls-1" d="M184.72,270.92" transform="translate(-98.56 -88.78)"/><path class="cls-1" d="M210.52,363.69" transform="translate(-98.56 -88.78)"/><path class="cls-1" d="M228.2,118.13s14.49-7.89,36.26-7.89,46.76,21.9,52.94,32,26.39,56.69,27.52,66.39,7.58,59.74,3.65,71.65-5.63,36.61,1.25,54c6.4,16.15,28.09,51.69,28.23,52l5,13.78" transform="translate(-98.56 -88.78)"/><path class="cls-1" d="M259.19,347.22" transform="translate(-98.56 -88.78)"/><path class="cls-1" d="M323.77,299.68" transform="translate(-98.56 -88.78)"/><path class="cls-1" d="M338.79,214.62" transform="translate(-98.56 -88.78)"/><path class="cls-1" d="M323.77,299.68" transform="translate(-98.56 -88.78)"/><path class="cls-1" d="M389.84,409.56c-1.12-22.47-13.66-52.42-13.66-52.42-12.22-20.27-13.48-27.89-17.78-44-4-14.81-1.13-85-12.92-128.22s-40.43-69.63-69.63-83.67-50,9-50,9-16.85-8.42-28.08,6.18-19.94,29.76-24.15,43-38.19,75.53-37.06,84.51,9.26,25.84,5.89,31.73-19.09,27-23.58,50-2.61,47.32,19.09,68.23c0,0,10.39,11.51,7.86,16.29" transform="translate(-98.56 -88.78)"/><path class="cls-1" d="M182.39,251.58s-7.27,20.11-9,26-1.3,16.27-5.52,23-8,19.31-7.16,25.76,6.74,19.8,6.32,26.4,1.69,11.23,2.25,17c0,0,2.39,7.87,0,12.64" transform="translate(-98.56 -88.78)"/><path class="cls-1" d="M411.06,407.2c-1.28-22.76-15.57-53.1-15.57-53.1-13.92-20.54-15.36-28.25-20.26-44.56-4.52-15-1.28-86.09-14.72-129.9s-46.07-70.54-79.35-84.76-57,9.1-57,9.1-19.19-8.53-32,6.26-22.72,30.15-27.52,43.52-43.51,76.51-42.23,85.62,10.56,26.17,6.72,32.14-21.76,27.31-26.88,50.63-3,47.93,21.76,69.12c0,0,11.84,11.66,9,16.5" transform="translate(-98.56 -88.78)"/><path class="cls-1" d="M389.84,409.56c-1.12-22.47-13.66-52.42-13.66-52.42-12.22-20.27-13.48-27.89-17.78-44-4-14.81-1.13-85-12.92-128.22s-40.43-69.63-69.63-83.67-50,9-50,9-16.85-8.42-28.08,6.18-19.94,29.76-24.15,43-38.19,75.53-37.06,84.51,9.26,25.84,5.89,31.73-19.09,27-23.58,50-2.61,47.32,19.09,68.23c0,0,10.39,11.51,7.86,16.29" transform="translate(-98.56 -88.78)"/><path class="cls-1" d="M389.84,409.56c-1.12-22.47-13.66-52.42-13.66-52.42-12.22-20.27-13.48-27.89-17.78-44-4-14.81-1.13-85-12.92-128.22s-40.43-69.63-69.63-83.67-50,9-50,9-16.85-8.42-28.08,6.18-19.94,29.76-24.15,43-38.19,75.53-37.06,84.51,9.26,25.84,5.89,31.73-19.09,27-23.58,50-2.61,47.32,19.09,68.23c0,0,10.39,11.51,7.86,16.29" transform="translate(-98.56 -88.78)"/><path class="cls-1" d="M153.42,395c2.08-7.32-25-40.71-24.42-58.4s18.81-50.54,22.74-56.44-2.25-34.81,0-46.79,46.33-102.3,55-112.41a19.94,19.94,0,0,1,20.35-6.41" transform="translate(-98.56 -88.78)"/><path class="cls-1" d="M173.86,208.64s-7.38,18-8.64,23.6,2.66,21.34,1.54,25.27-4.08,23.17-10,34.12-11.86,33.46-11,43.26,15.87,45.89,16.85,49.39c.31,1.1.57,2.3.79,3.44a13.43,13.43,0,0,1-2.45,10.71" transform="translate(-98.56 -88.78)"/><path class="cls-1" d="M172.62,365.65c-.56,1.4,5.28-9.44,5.44-14.78,0,0,.92-12.63-1.75-19.51s-1.12-12.22-1.12-19.1,7.16-14,8.84-18.11S188,277,188,277" transform="translate(-98.56 -88.78)"/><path class="cls-1" d="M328.38,278.08s-2.82,31.46-.22,50.84,9.25,46,22,58.71,9.25,12.43,9.25,12.43" transform="translate(-98.56 -88.78)"/><path class="cls-1" d="M374,399.2c-1-4.05-9.06-10.41-9.06-10.41-19.28-13.31-25.65-46.86-28-53s-4.05-38.36,1.86-57.45c5.75-18.56-1.63-51.38-2.05-53.2,0,0,0,0,0,0-2,6.63.87,108-73.63,112.78C181.12,343.1,180.46,230,180.46,230" transform="translate(-98.56 -88.78)"/><path class="cls-1" d="M226.06,110.9S244.82,100,253.38,100s27.64,2.75,46,15.63" transform="translate(-98.56 -88.78)"/></g></svg>