<?xml version="1.0" encoding="utf-8"?>
<!-- Generator: Adobe Illustrator 23.0.5, SVG Export Plug-In . SVG Version: 6.00 Build 0)  -->
<svg version="1.1" id="Capa_1" xmlns="http://www.w3.org/2000/svg" xmlns:xlink="http://www.w3.org/1999/xlink" x="0px" y="0px"
	 viewBox="0 0 423 334.4" style="enable-background:new 0 0 423 334.4;" xml:space="preserve">
<style type="text/css">
	.st0{fill:#D43076;}
</style>
<g>
	<path class="st0" d="M415.6,180.1c-121.8,0-243.7,0-366.8,0c47,41.6,93.2,82.4,139.8,123.6c-5.3,6-10.4,11.8-15.8,18
		c-4.1-3.6-8.1-7.1-12.1-10.6C110.4,266.6,60.2,222.2,9.9,177.8c-5.8-5.1-5.8-14.3,0-19.5C62.5,111.9,115,65.5,167.5,19
		c1.6-1.4,3.2-2.8,5.1-4.5c5.3,6,10.4,11.8,15.9,17.9c-46.4,41-92.7,81.9-139.8,123.6c123,0,244.9,0,366.8,0
		C415.6,164.1,415.6,172.1,415.6,180.1z"/>
</g>
</svg>
