<?xml version="1.0" encoding="utf-8"?>
<!-- Generator: Adobe Illustrator 23.0.5, SVG Export Plug-In . SVG Version: 6.00 Build 0)  -->
<svg version="1.1" id="Capa_1" xmlns="http://www.w3.org/2000/svg" xmlns:xlink="http://www.w3.org/1999/xlink" x="0px" y="0px"
	 viewBox="0 0 423 334.4" style="enable-background:new 0 0 423 334.4;" xml:space="preserve">
<style type="text/css">
	.st0{fill:#D43076;}
</style>
<g>
	<path class="st0" d="M5.6,156.1c121.8,0,243.7,0,366.8,0c-47-41.6-93.2-82.4-139.8-123.6c5.3-6,10.4-11.8,15.8-18
		c4.1,3.6,8.1,7.1,12.1,10.6c50.2,44.4,100.5,88.8,150.7,133.2c5.8,5.1,5.8,14.3,0,19.5c-52.5,46.4-105.1,92.9-157.6,139.3
		c-1.6,1.4-3.2,2.8-5.1,4.5c-5.3-6-10.4-11.8-15.9-17.9c46.4-41,92.7-81.9,139.8-123.6c-123,0-244.9,0-366.8,0
		C5.6,172.1,5.6,164.1,5.6,156.1z"/>
</g>
</svg>
